<!--?xml version="1.0" encoding="utf-8"?-->
<!-- Svg Vector Icons : http://www.onlinewebfonts.com/icon -->

<svg version="1.1" xmlns="http://www.w3.org/2000/svg" xmlns:xlink="http://www.w3.org/1999/xlink" x="0px" y="0px" viewBox="0 0 256 256" enable-background="new 0 0 256 256" xml:space="preserve">
<metadata> Svg Vector Icons : http://www.onlinewebfonts.com/icon </metadata>
<g><g><path fill="#fbf5f5" data-title="Layer 0" xs="0" d="M232.7,182.9L232.7,182.9c8.5-16.3,13.3-34.7,13.3-54.3c0-65.2-52.8-118-118-118c-65.2,0-118,52.8-118,118c0,19.6,4.8,38,13.2,54.3h0.3c2.3,5.3,8.2,8.3,13.9,6.7l22.8-6.1c6.3-1.7,10-8.2,8.3-14.4l-12.2-45.6c-1.7-6.3-8.2-10-14.4-8.4l-7.6,2c5.6-46.7,45.4-83,93.7-83c48.2,0,88,36.2,93.7,82.9l-7.3-2c-6.3-1.7-12.7,2-14.5,8.4L187.7,169c-1.7,6.3,2,12.8,8.3,14.4l22.8,6.1C224.6,191.2,230.5,188.2,232.7,182.9z"/><path fill="#fbf5f5" data-title="Layer 1" xs="1" d="M167.4,235.6c33.8-17.4,54-53.9,50.7-92l-11.6,3.1c2,32.1-15.1,62.6-43.3,77.7c-2.8-2.3-6.7-3.3-10.5-2.2c-6.3,1.7-10,8.2-8.3,14.4c1.7,6.3,8.2,10,14.4,8.3C163.4,243.8,166.6,240,167.4,235.6z"/></g></g>
</svg>